<?xml version="1.0" encoding="iso-8859-1"?>
<!-- Uploaded to: SVG Repo, www.svgrepo.com, Generator: SVG Repo Mixer Tools -->
<svg version="1.1" id="Layer_1" xmlns="http://www.w3.org/2000/svg" xmlns:xlink="http://www.w3.org/1999/xlink" 
	 viewBox="0 0 512 512" xml:space="preserve">
<g>
	<rect x="182.857" y="244.506" style="fill:#4B92B9;" width="31.347" height="20.898"/>
	<rect x="297.796" y="244.506" style="fill:#4B92B9;" width="31.347" height="20.898"/>
	<rect x="182.857" y="348.996" style="fill:#4B92B9;" width="31.347" height="20.898"/>
	<rect x="297.796" y="348.996" style="fill:#4B92B9;" width="31.347" height="20.898"/>
</g>
<rect x="151.51" y="265.404" style="fill:#79CAE8;" width="208.98" height="83.592"/>
<g>
	<rect x="151.51" y="181.812" style="fill:#4B92B9;" width="208.98" height="62.694"/>
	<path style="fill:#4B92B9;" d="M314.384,321.831H207.107v-29.257h107.277c8.079,0,14.629,6.549,14.629,14.629l0,0
		C329.012,315.281,322.463,321.831,314.384,321.831z"/>
</g>
<circle style="fill:#CAF9F4;" cx="202.313" cy="307.2" r="19.331"/>
<rect x="7.837" y="142.106" style="fill:#4B92B9;" width="143.673" height="227.788"/>
<circle cx="28.735" cy="163.004" r="5.224"/>
<circle cx="130.612" cy="163.004" r="5.224"/>
<circle cx="28.735" cy="348.996" r="5.224"/>
<circle cx="130.612" cy="348.996" r="5.224"/>
<circle cx="28.735" cy="256" r="5.224"/>
<circle cx="130.612" cy="256" r="5.224"/>
<circle style="fill:#79CAE8;" cx="79.673" cy="303.219" r="47.02"/>
<circle style="fill:#CAF9F4;" cx="79.673" cy="303.219" r="18.808"/>
<circle style="fill:#79CAE8;" cx="79.673" cy="198.332" r="36.571"/>
<circle style="fill:#CAF9F4;" cx="79.673" cy="198.332" r="13.061"/>
<rect x="360.49" y="142.106" style="fill:#4B92B9;" width="143.673" height="227.788"/>
<circle cx="381.388" cy="163.004" r="5.224"/>
<circle cx="483.265" cy="163.004" r="5.224"/>
<circle cx="381.388" cy="348.996" r="5.224"/>
<circle cx="483.265" cy="348.996" r="5.224"/>
<circle cx="381.388" cy="256" r="5.224"/>
<circle cx="483.265" cy="256" r="5.224"/>
<circle style="fill:#79CAE8;" cx="432.327" cy="303.219" r="47.02"/>
<circle style="fill:#CAF9F4;" cx="432.327" cy="303.219" r="18.808"/>
<circle style="fill:#79CAE8;" cx="432.327" cy="198.332" r="36.571"/>
<circle style="fill:#CAF9F4;" cx="432.327" cy="198.332" r="13.061"/>
<rect x="175.02" y="210.547" width="15.673" height="15.673"/>
<rect x="199.398" y="200.098" width="15.673" height="26.122"/>
<rect x="223.786" y="210.547" width="15.673" height="15.673"/>
<rect x="248.163" y="200.098" width="15.673" height="26.122"/>
<rect x="272.541" y="210.547" width="15.673" height="15.673"/>
<rect x="296.929" y="200.098" width="15.673" height="26.122"/>
<rect x="321.306" y="210.547" width="15.673" height="15.673"/>
<path d="M314.389,284.733h-96.818c-4.351-2.963-9.603-4.698-15.252-4.698c-14.98,0-27.167,12.187-27.167,27.167
	s12.188,27.167,27.167,27.167c5.655,0,10.91-1.739,15.264-4.706h96.807c6.011,0,11.654-2.341,15.875-6.58
	c4.243-4.242,6.58-9.884,6.58-15.886C336.844,294.811,326.77,284.733,314.389,284.733z M202.318,318.696
	c-6.337,0-11.494-5.157-11.494-11.494c0-6.338,5.157-11.494,11.494-11.494s11.494,5.155,11.494,11.494
	C213.812,313.539,208.656,318.696,202.318,318.696z M319.17,312.011c-1.271,1.277-2.969,1.978-4.781,1.978h-85.761
	c0.56-2.17,0.859-4.445,0.859-6.788c0-2.346-0.299-4.624-0.861-6.796h85.764c3.74,0,6.781,3.047,6.781,6.792
	C321.17,309.012,320.464,310.718,319.17,312.011z"/>
<path d="M79.673,358.074c30.249,0,54.857-24.609,54.857-54.857c0-30.248-24.608-54.857-54.857-54.857s-54.857,24.609-54.857,54.857
	C24.816,333.465,49.425,358.074,79.673,358.074z M79.673,264.033c21.606,0,39.184,17.577,39.184,39.184
	c0,21.606-17.577,39.184-39.184,39.184S40.49,324.823,40.49,303.217C40.49,281.61,58.067,264.033,79.673,264.033z"/>
<path d="M79.673,329.862c14.692,0,26.645-11.954,26.645-26.645c0-14.691-11.953-26.645-26.645-26.645s-26.645,11.954-26.645,26.645
	C53.029,317.908,64.981,329.862,79.673,329.862z M79.673,292.245c6.05,0,10.971,4.921,10.971,10.971
	c0,6.05-4.921,10.971-10.971,10.971c-6.05,0-10.971-4.921-10.971-10.971C68.702,297.167,73.624,292.245,79.673,292.245z"/>
<path d="M79.673,242.743c24.487,0,44.408-19.921,44.408-44.408s-19.921-44.408-44.408-44.408s-44.408,19.921-44.408,44.408
	S55.186,242.743,79.673,242.743z M79.673,169.601c15.845,0,28.735,12.891,28.735,28.735s-12.89,28.735-28.735,28.735
	s-28.735-12.891-28.735-28.735S63.829,169.601,79.673,169.601z"/>
<path d="M79.673,219.233c11.523,0,20.898-9.375,20.898-20.898s-9.375-20.898-20.898-20.898s-20.898,9.375-20.898,20.898
	S68.15,219.233,79.673,219.233z M79.673,193.111c2.881,0,5.224,2.344,5.224,5.224s-2.344,5.224-5.224,5.224
	c-2.881,0-5.224-2.344-5.224-5.224S76.793,193.111,79.673,193.111z"/>
<path d="M352.653,134.267v39.71H159.347v-39.71H0v243.465h159.347v-20.898h15.673v20.898h47.02v-20.898h67.918v20.898h47.02v-20.898
	h15.673v20.898H512V134.267H352.653z M352.653,189.651v47.02H159.347v-47.02H352.653z M159.347,257.569v-5.225h15.673v5.225H159.347
	z M190.694,252.345h15.673v5.225h-15.673V252.345z M222.041,252.345h67.918v5.225h-67.918V252.345z M305.633,252.345h15.673v5.225
	h-15.673V252.345z M336.98,252.345h15.673v5.225H336.98V252.345z M143.673,362.059h-128V149.941h128V362.059z M206.367,362.059
	h-15.673v-5.224h15.673V362.059z M321.306,362.059h-15.673v-5.224h15.673V362.059z M159.347,341.161v-67.918h193.306v67.918H159.347
	z M496.327,362.059h-128V149.941h128V362.059z"/>
<path d="M432.327,358.074c30.249,0,54.857-24.609,54.857-54.857c0-30.248-24.608-54.857-54.857-54.857s-54.857,24.609-54.857,54.857
	C377.469,333.465,402.078,358.074,432.327,358.074z M432.327,264.033c21.606,0,39.184,17.577,39.184,39.184
	c0,21.606-17.577,39.184-39.184,39.184s-39.184-17.577-39.184-39.184C393.143,281.61,410.72,264.033,432.327,264.033z"/>
<path d="M432.327,329.862c14.691,0,26.645-11.954,26.645-26.645c0-14.691-11.954-26.645-26.645-26.645s-26.645,11.954-26.645,26.645
	C405.682,317.908,417.635,329.862,432.327,329.862z M432.327,292.245c6.05,0,10.971,4.921,10.971,10.971
	c0,6.05-4.921,10.971-10.971,10.971s-10.971-4.921-10.971-10.971C421.355,297.167,426.277,292.245,432.327,292.245z"/>
<path d="M432.327,242.743c24.487,0,44.408-19.921,44.408-44.408s-19.921-44.408-44.408-44.408s-44.408,19.921-44.408,44.408
	S407.839,242.743,432.327,242.743z M432.327,169.601c15.845,0,28.735,12.891,28.735,28.735s-12.89,28.735-28.735,28.735
	c-15.845,0-28.735-12.891-28.735-28.735S416.482,169.601,432.327,169.601z"/>
<path d="M432.327,219.233c11.523,0,20.898-9.375,20.898-20.898s-9.375-20.898-20.898-20.898c-11.523,0-20.898,9.375-20.898,20.898
	S420.803,219.233,432.327,219.233z M432.327,193.111c2.881,0,5.224,2.344,5.224,5.224s-2.344,5.224-5.224,5.224
	s-5.224-2.344-5.224-5.224S429.446,193.111,432.327,193.111z"/>
</svg>